<?xml version="1.0" encoding="UTF-8"?>
<svg width="40px" height="40px" viewBox="0 0 40 40" version="1.1" xmlns="http://www.w3.org/2000/svg" xmlns:xlink="http://www.w3.org/1999/xlink">
    <title>black外圈</title>
    <defs>
        <linearGradient x1="50%" y1="100%" x2="50%" y2="0%" id="linearGradient-1">
            <stop stop-color="#181818" offset="0%"></stop>
            <stop stop-color="#2A323B" offset="0.625370106%"></stop>
            <stop stop-color="#939AA3" offset="100%"></stop>
        </linearGradient>
    </defs>
    <g id="8pro_spec" stroke="none" stroke-width="1" fill="none" fill-rule="evenodd">
        <g id="8pro_色值" transform="translate(-88.000000, -25.000000)" fill="url(#linearGradient-1)" fill-rule="nonzero">
            <g id="编组-4" transform="translate(50.000000, 25.000000)">
                <g id="black" transform="translate(38.000000, 0.000000)">
                    <path d="M20,0 C31.045695,0 40,8.954305 40,20 C40,31.045695 31.045695,40 20,40 C8.954305,40 0,31.045695 0,20 C0,8.954305 8.954305,0 20,0 Z M20,4 C11.163444,4 4,11.163444 4,20 C4,28.836556 11.163444,36 20,36 C28.836556,36 36,28.836556 36,20 C36,11.163444 28.836556,4 20,4 Z" id="black外圈"></path>
                </g>
            </g>
        </g>
    </g>
</svg>