<?xml version="1.0" encoding="UTF-8"?>
<svg width="611px" height="285px" viewBox="0 0 611 285" version="1.1" xmlns="http://www.w3.org/2000/svg" xmlns:xlink="http://www.w3.org/1999/xlink">
    <title>p_line_front</title>
    <g id="8pro_spec" stroke="none" stroke-width="1" fill="none" fill-rule="evenodd">
        <g id="8_pc_spec" transform="translate(-885.000000, -1859.000000)" fill="#979797">
            <g id="Display" transform="translate(680.000000, 1698.000000)">
                <g id="p_line_front" transform="translate(205.000000, 162.000000)">
                    <g id="编组" transform="translate(0.000000, 0.188000)" fill-rule="nonzero">
                        <path d="M32.8029,237.4964 C28.6690919,237.4964 25.3179,240.847923 25.3179,244.9814 C25.3179,249.114708 28.6689233,252.4654 32.8029,252.4654 C36.9360424,252.4654 40.2869,249.114542 40.2869,244.9814 C40.2869,240.848089 36.9358738,237.4964 32.8029,237.4964 Z M32.8029,238.4964 C36.3835448,238.4964 39.2869,241.40033 39.2869,244.9814 C39.2869,248.562258 36.3837576,251.4654 32.8029,251.4654 C29.2211859,251.4654 26.3179,248.562401 26.3179,244.9814 C26.3179,241.400186 29.2213988,238.4964 32.8029,238.4964 Z" id="Stroke-1"></path>
                        <path d="M32.8021,239.7364 C29.9056285,239.7364 27.5571,242.084587 27.5571,244.9814 C27.5571,247.878213 29.9056285,250.2264 32.8021,250.2264 C35.6985715,250.2264 38.0471,247.878213 38.0471,244.9814 C38.0471,242.084587 35.6985715,239.7364 32.8021,239.7364 Z M32.8021,240.7364 C35.1463193,240.7364 37.0471,242.636904 37.0471,244.9814 C37.0471,247.325896 35.1463193,249.2264 32.8021,249.2264 C30.4578807,249.2264 28.5571,247.325896 28.5571,244.9814 C28.5571,242.636904 30.4578807,240.7364 32.8021,240.7364 Z" id="Stroke-3"></path>
                        <path d="M45.3156544,14.5638995 L44.2299736,14.5682069 L43.1797143,14.5804317 C43.0075564,14.5831614 42.8368245,14.5862452 42.6674937,14.5896954 L41.6681227,14.6148898 C41.5042966,14.6198539 41.3418217,14.6252087 41.1806731,14.6309662 L40.2294978,14.6704419 C40.0735548,14.6778591 39.9188881,14.6857034 39.765473,14.6939869 L38.8598009,14.7490559 C38.7112921,14.7591449 38.563985,14.7696974 38.4178545,14.7807255 L37.554993,14.8526996 L36.7191761,14.9366725 C30.4118585,15.6279509 26.3834565,17.4285379 22.2072549,21.5207747 C19.1555734,24.5106655 17.343892,27.9073935 16.3919205,32.0385018 L16.2756359,32.5608078 L16.1689596,33.0781468 L16.0714002,33.5946857 C16.0558727,33.6809403 16.0407046,33.7673351 16.0258857,33.8539571 L15.9410803,34.3771083 C15.9276171,34.4649858 15.9144826,34.5532641 15.9016665,34.6420298 L15.8285096,35.1811686 L15.7625043,35.7361743 L15.7031591,36.3112136 L15.6499828,36.9104533 L15.6024841,37.5380601 L15.5408065,38.5417735 L15.505352,39.2585277 L15.4738553,40.0182328 L15.4329564,41.2474379 L15.3876913,43.0755957 L15.3153574,46.6353567 L15.3110207,238.726164 L15.2839604,240.597095 L15.2839604,241.223915 L15.2839604,241.865691 C15.3154653,250.489966 16.754247,257.046782 20.9840029,261.790652 C23.9895707,265.478994 27.7339955,267.76302 32.2481644,268.971622 C34.3098561,269.523609 36.2961189,269.832197 38.7100803,269.991133 L39.580645,270.041167 L40.4916435,270.079689 L41.4479913,270.107615 L42.454604,270.125861 L43.5163971,270.135342 C43.6982341,270.136243 43.8825751,270.136817 44.0695225,270.137083 L46.3880328,270.13897 L81.1550476,270.184077 L131.035681,270.194003 L556.201336,270.091874 C564.416154,270.00748 571.419052,267.646299 576.763409,261.388617 C578.921233,258.861746 580.350962,255.749325 581.187149,252.131684 C581.936175,248.891136 582.153061,245.965974 582.115553,241.860726 L582.099225,240.710731 L582.052752,238.411826 L582.057007,219.407492 L582.059634,45.6304707 L582.074405,43.9696172 C582.075943,43.5776741 582.075751,43.1965203 582.073618,42.8249566 L582.061186,41.7378363 C582.002048,38.3787981 581.748743,35.7770188 581.120644,32.9041954 C580.420465,29.7016875 579.311479,26.8941571 577.709597,24.5396471 C574.672357,20.1177475 570.65413,17.3322461 565.954337,15.8581639 C562.910399,14.9034381 560.179694,14.6043829 557.03109,14.6153516 L556.347502,14.6211275 L544.005118,14.6260212 L45.3156544,14.5638995 Z M45.3158925,15.5638995 L490.454219,15.6260008 L556.444265,15.6208989 C559.757409,15.5709168 562.54228,15.8360124 565.655063,16.8123314 C570.150571,18.2223395 573.981269,20.8778431 576.884057,25.1039865 C578.406277,27.3414154 579.469051,30.0319537 580.143721,33.1177847 C580.788353,36.0662296 581.028887,38.7368826 581.069097,42.3048695 L581.075354,43.4033607 C581.075463,43.591321 581.075123,43.7818183 581.074358,43.9749997 L581.052725,46.4193004 L581.057002,140.259409 L581.057881,238.796378 L581.099296,240.724215 L581.119191,241.855792 L581.119191,242.929087 C581.109853,246.416921 580.874654,249.043227 580.212838,251.90648 C579.410511,255.377631 578.047304,258.345236 576.002973,260.739204 C570.978679,266.622125 564.407884,268.919748 556.657499,269.084584 L555.903278,269.093524 L539.246242,269.111053 L310.171776,269.181248 L186.026381,269.195018 L47.4054089,269.147952 L46.392276,269.13898 L44.0704585,269.137084 L43.545755,269.135109 L42.5188782,269.123592 L41.5213698,269.101485 C40.8659744,269.083082 40.2296204,269.057217 39.6112329,269.023085 L38.696992,268.965586 L37.8088944,268.895083 C30.5147725,268.251702 25.8599327,266.190944 21.7447719,261.142008 C17.7090145,256.614978 16.3146342,250.260508 16.2839787,241.863846 L16.2899234,240.386414 L16.3150811,238.203356 L16.3152,46.6479 L16.3907307,43.0069732 L16.4355861,41.4451412 L16.4732605,40.4522527 L16.517825,39.4964357 L16.569857,38.5763234 L16.6299338,37.6905488 L16.6986329,36.8377452 L16.7765316,36.0165455 L16.8642072,35.225583 C17.575341,29.2739528 19.1993804,25.8677147 22.9071191,22.2350507 C26.8849758,18.3371708 30.7299863,16.6069362 36.8047274,15.9343578 L37.6281135,15.8508509 C37.7676159,15.8379451 37.9082712,15.8255374 38.0501054,15.8136154 L38.9154646,15.7478149 L39.8103614,15.6930879 C40.1137216,15.6766261 40.4222121,15.6619125 40.7360404,15.6488496 L41.693746,15.6145155 C41.8561016,15.609586 42.0198435,15.6050448 42.1849977,15.6008798 L43.1930766,15.5803055 L44.2362934,15.5681736 L45.3158925,15.5638995 Z" id="Stroke-5"></path>
                        <path d="M45.5745124,8.280118 L483.014791,8.52919599 L564.578241,8.46924172 L565.799115,8.45760052 L566.985024,8.45482919 C567.179813,8.45511884 567.373182,8.45578737 567.565152,8.45683942 L568.700326,8.46779107 C568.886773,8.47039577 569.071858,8.47339328 569.2556,8.47678825 L570.342091,8.50196472 L571.397266,8.5369032 L572.422039,8.58182671 L573.417321,8.6369583 L574.384025,8.70252101 L575.323062,8.77873785 C575.785816,8.81954699 576.238538,8.86443506 576.681739,8.91352754 L577.555602,9.01735553 C583.585919,9.78391298 587.817434,11.390926 591.658152,14.1826496 L592.20432,14.5895637 L592.746082,15.0128193 C593.285947,15.4443201 593.820572,15.9006677 594.354064,16.3828658 L594.806594,16.8725607 L595.244213,17.3573792 L595.667139,17.8382612 C595.736414,17.9181324 595.805087,17.9978787 595.87316,18.0775198 L596.274455,18.5542597 C596.340153,18.633558 596.405261,18.7127902 596.469784,18.7919759 L596.849939,19.2666886 C596.91214,19.3457666 596.973766,19.4248372 597.03482,19.50392 L597.394325,19.9787205 C597.511899,20.1371407 597.627224,20.2957665 597.740337,20.4547546 L598.073072,20.9329622 L598.39275,21.4142833 C598.549361,21.6558789 598.701157,21.8989946 598.84826,22.144159 L599.136247,22.6373764 C599.324116,22.9682181 599.503788,23.3033288 599.675555,23.6439618 L599.927312,24.1592097 L600.167428,24.6836811 C600.284612,24.9483793 600.397513,25.2168889 600.506253,25.4897385 L600.718221,26.0413811 C600.821468,26.3202524 600.920635,26.6038163 601.015846,26.8926015 L601.201029,27.4772903 L601.37588,28.0768426 C601.517344,28.5829236 601.648272,29.1054667 601.769232,29.6469195 L601.909636,30.3058963 C601.954867,30.5286853 601.998539,30.7546565 602.040688,30.9839666 L602.162607,31.6820703 C602.182178,31.8001426 602.201377,31.9190887 602.22021,32.0389284 L602.328837,32.7688447 L602.428877,33.5211445 L602.520546,34.2967676 L602.604062,35.0966542 L602.679645,35.9217441 L602.747511,36.7729775 L602.807879,37.6512942 C602.817328,37.7999895 602.826473,37.9498525 602.835319,38.1009026 L602.884849,39.0216069 L602.927425,39.9717446 L602.963266,40.9522557 L602.99259,41.9640801 L603.015616,43.0081579 L603.03256,44.0854291 L603.052392,45.7656296 L603.038,95.2926069 L603.052392,241.167529 L603.044355,242.594088 L603.034019,243.465572 L603.019165,244.282407 L602.999335,245.052302 L602.974069,245.782966 L602.94291,246.482108 L602.905398,247.157439 L602.861075,247.816666 L602.809481,248.467501 L602.750159,249.117651 L602.68265,249.774827 C602.67069,249.88537 602.658371,249.996527 602.645681,250.108458 C601.942736,256.309025 600.17751,261.34055 596.816275,265.585527 C592.715713,270.55234 587.986244,273.455698 582.203352,274.906689 L581.923141,274.97603 L581.367356,275.107606 L580.815542,275.229968 L580.265044,275.343428 L579.713206,275.448296 L579.157373,275.544882 C579.064254,275.560307 578.970857,275.575399 578.877129,275.590166 L578.310324,275.674913 L577.732885,275.752154 L577.142156,275.822202 L576.535482,275.885366 L575.910207,275.941958 L575.263677,275.992288 L574.593234,276.036667 L573.896224,276.075405 L572.795086,276.123616 L572.02004,276.149612 L571.209132,276.171056 L569.91972,276.195364 L568.534682,276.211175 L565.989439,276.221495 L45.8921221,276.288919 L44.3422815,276.322227 C38.3157497,276.463087 33.7770414,276.195618 28.8670849,274.971784 C23.8426201,273.719407 19.6469275,271.594535 16.4968788,268.404333 C13.984929,265.785788 12.0734837,262.975831 10.684883,259.964955 C9.03629088,256.390344 8.20875845,253.176868 7.85786719,249.113689 L7.78984622,248.229561 L7.7356632,247.316774 C7.68814813,246.388775 7.66026033,245.413816 7.64861086,244.379983 L7.64224864,243.326084 C7.64184848,242.967949 7.64312706,242.602831 7.64595887,242.230288 L7.65898844,241.089948 L7.70223417,238.26006 L7.65070013,172.492554 C7.65050471,172.216412 7.87420387,171.992396 8.15034617,171.9922 C8.42648848,171.992005 8.65050446,172.215704 8.65069987,172.491846 L8.70026424,238.513255 L8.65897145,241.098718 L8.64608682,242.220367 L8.6422948,243.297685 L8.64832074,244.333278 L8.66489001,245.32975 L8.69272798,246.289707 L8.73256,247.215753 C8.97827115,252.068866 9.76667762,255.586258 11.5929611,259.546154 C12.9351828,262.456468 14.7837181,265.173943 17.2134812,267.706889 C20.2157088,270.747314 24.2496369,272.790262 29.1089407,274.001471 C33.7186136,275.150458 38.0174387,275.438884 43.6126454,275.337207 L45.8827039,275.288959 L47.716583,275.286998 L567.05251,275.2195 L569.033903,275.2064 L570.395908,275.187339 L571.662068,275.159156 L572.841809,275.120766 L573.944558,275.071085 L574.641605,275.031154 L575.311415,274.985401 L575.956783,274.933504 L576.580499,274.875142 L577.185359,274.809992 L577.774154,274.737734 L578.349678,274.658045 L578.914723,274.570605 L579.472083,274.475092 L580.024551,274.371184 L580.57492,274.25856 L581.125982,274.136897 L581.680531,274.005876 C581.773401,273.983241 581.866533,273.960203 581.959985,273.936755 C587.54003,272.536661 592.083356,269.747572 596.038699,264.95682 C599.264101,260.883228 600.96853,256.024998 601.652046,249.995812 L601.722655,249.342835 L601.813204,248.38012 L601.863983,247.738352 L601.907615,247.087718 L601.94455,246.420588 L601.975237,245.729333 L602.000126,245.006326 L602.027569,243.845592 L602.044492,242.570502 L602.053312,240.647996 L602.04597,227.297281 L602.037924,154.007236 L602.049107,46.3504346 L602.039123,44.6490485 L602.025467,43.5592384 L602.005952,42.5038501 L601.980358,41.4819098 L601.948462,40.4924439 L601.910043,39.5344785 L601.864879,38.60704 L601.812748,37.7091547 C601.803466,37.5619158 601.793886,37.4158677 601.784001,37.2709901 L601.721004,36.4156086 L601.650487,35.5873459 L601.572228,34.7852283 L601.486004,34.0082819 L601.391595,33.2555331 C601.375165,33.1320374 601.358386,33.0095092 601.341251,32.8879285 L601.234148,32.1696503 C601.215575,32.0517779 601.196638,31.9348123 601.177332,31.8187333 L601.057036,31.1327347 C601.036236,31.0201206 601.015059,30.9083524 600.993499,30.7974098 L600.859511,30.1415 C600.813293,29.9260579 600.765508,29.7137561 600.716118,29.5044323 L600.563098,28.8852328 L600.40023,28.2829279 C600.344275,28.0848671 600.286641,27.8894598 600.227292,27.6965437 L600.044063,27.1251066 C599.949839,26.8429626 599.851672,26.5660585 599.749438,26.2938467 L599.53951,25.7555172 C599.467701,25.5780512 599.394049,25.4025085 599.318514,25.2287266 L599.08623,24.7125013 L598.842435,24.2058675 C598.800831,24.1221738 598.758738,24.0388391 598.716152,23.9558431 L598.454675,23.4617709 C598.365518,23.2983271 598.27435,23.1360761 598.181134,22.9748557 L597.895306,22.4941241 C597.846632,22.4144633 597.797437,22.3350196 597.747716,22.2557727 L597.443042,21.7824904 L597.125528,21.3129572 L596.794952,20.8461993 C596.626362,20.6133519 596.45279,20.3811802 596.274111,20.1491363 L595.90991,19.6850567 C595.848062,19.6076844 595.785638,19.5302858 595.722633,19.4528405 L595.337591,18.9874466 L594.938379,18.5199595 L594.524774,18.0494052 L594.096555,17.5748102 L593.653501,17.0952006 C593.310657,16.7854412 592.967285,16.4867388 592.622167,16.1988088 L592.10303,15.7749577 C588.891741,13.2105933 585.479117,11.5557792 580.902626,10.5853576 L580.150138,10.4339555 C579.259979,10.2642355 578.3263,10.1185761 577.342582,9.99545258 L576.48699,9.89540154 C576.342298,9.87963435 576.196548,9.86431818 576.049718,9.84944859 L575.155653,9.76555445 C575.004436,9.7524534 574.852101,9.73979004 574.698632,9.72755992 L573.764042,9.65934261 L572.801295,9.60130982 L571.80948,9.55324817 C571.473928,9.53886577 571.13338,9.52610967 570.787683,9.5149443 L569.734993,9.48618486 L568.650497,9.46675646 L567.533285,9.45644576 C567.344305,9.45547526 567.153925,9.45487578 566.962124,9.45464286 L565.794125,9.45760863 L559.654964,9.4940096 L513.272429,9.53000433 L236.960448,9.41105305 L46.1637,9.2792 C45.7701808,9.2792 45.3815637,9.28040711 44.997753,9.28286428 L43.8606445,9.29402892 L42.7518007,9.31295157 L41.6706475,9.33988991 L40.616611,9.3751016 C40.4431661,9.38167398 40.2708271,9.38860182 40.0995821,9.39589048 L39.0851444,9.44399534 L38.0963884,9.50101772 C37.933704,9.5112789 37.7720658,9.52192237 37.6114617,9.53295351 L36.6601521,9.60383532 C36.503637,9.6164386 36.3481322,9.62944029 36.1936257,9.64284576 L35.2784711,9.72816674 C35.1279101,9.74320877 34.9783235,9.7586653 34.8296994,9.77454171 L33.9494083,9.87488162 C33.8045861,9.89245901 33.6607025,9.91046701 33.5177454,9.92891099 L32.6710264,10.0448496 C32.2531307,10.1054777 31.843359,10.1701263 31.4413884,10.2389403 L30.647753,10.3821651 C30.3866112,10.4317866 30.128841,10.4833023 29.8743466,10.5367552 L29.1205952,10.7029684 C23.4157121,12.0224831 19.3931416,14.3894815 15.8889634,18.3264733 L15.4347408,18.8489404 L14.9734466,19.4023506 C14.8983578,19.4942406 14.824159,19.5859768 14.7508396,19.6775874 L14.3213945,20.225968 C11.4578373,23.9660057 10.0378211,27.5893519 9.34567662,33.0338892 L9.2495001,33.8438765 L9.16321713,34.6812149 C9.14963341,34.8231256 9.13644115,34.9662321 9.12362998,35.1105626 L9.05125279,35.9914584 L8.98752309,36.9030794 L8.93194245,37.8467754 L8.88401244,38.8238959 C8.87663396,38.9896097 8.8695535,39.1567724 8.86276066,39.3254121 L8.82537204,40.3552 L8.79438798,41.4217865 L8.75883014,43.0936161 L8.67463942,50.2243188 L8.62586912,79.4490486 L8.61989667,100.196092 L8.61925583,112.0162 C8.61925583,112.292342 8.3953982,112.5162 8.11925583,112.5162 C7.87379594,112.5162 7.66964746,112.339325 7.6273115,112.106076 L7.61925583,112.0162 L7.67696752,49.8060984 L7.70377915,46.9203038 L7.77948432,41.7917439 L7.80831976,40.4777728 L7.83086647,39.6605344 L7.87056013,38.5140903 L7.91836891,37.4525021 L7.9553425,36.7861186 L7.9968118,36.1487487 L8.04313242,35.5369123 L8.09465994,34.9471293 L8.15174998,34.3759196 L8.21475812,33.8198031 L8.28403997,33.2752999 L8.35995113,32.7389297 L8.44284718,32.2072125 L8.53308374,31.6766683 L8.68297988,30.8754387 L8.73700074,30.6051785 C9.69594269,25.8797062 11.5428811,21.8851922 14.6726369,18.2014857 C18.0694211,14.2029315 21.88741,11.6852963 27.109966,10.18684 L27.830931,9.98877889 C28.3175015,9.86089182 28.8160494,9.74125426 29.3273135,9.6295193 L30.1038392,9.46780044 L30.8999934,9.31767529 C31.3030699,9.24546777 31.7137149,9.17751034 32.13224,9.11365662 L32.9798894,8.99137744 L33.8491067,8.87978132 C33.9958043,8.86205777 34.1434237,8.84476851 34.2919764,8.82790811 L35.1945843,8.73184875 L36.1201454,8.64582199 L37.0692136,8.56956765 L38.0423432,8.50282555 C38.2065673,8.4924801 38.3718171,8.48252015 38.5381041,8.47294029 L39.5483646,8.4199787 L40.5840717,8.37587888 L41.6457795,8.34038066 C41.8249283,8.33516663 42.0051836,8.33030017 42.1865568,8.32577584 L43.2883047,8.30269216 L44.4174385,8.28755961 C44.7984423,8.2838117 45.1841028,8.280118 45.5745124,8.280118 Z" id="Stroke-7"></path>
                        <path d="M566.8378,3.9357 L46.1637422,4.0277 C45.747703,4.0277 45.3362351,4.02906806 44.9292564,4.03184443 L43.7217053,4.04443873 C43.5226639,4.04725535 43.3247243,4.05043412 43.1278762,4.05398005 L41.9598026,4.079702 C41.7672791,4.08473675 41.5758266,4.09014874 41.3854348,4.09594299 L40.255729,4.13533599 C40.0695386,4.14267944 39.8843883,4.15041522 39.7002678,4.15854837 L38.6078203,4.21215583 C38.427778,4.22189855 38.2487449,4.23204869 38.0707109,4.24261129 L37.0144121,4.31097663 C36.8403329,4.32320918 36.6672322,4.33586425 36.4950996,4.34894688 L35.47384,4.4326135 L34.4753234,4.52678286 C34.1462202,4.55994995 33.8208254,4.59490774 33.4990566,4.6316965 L32.5445465,4.74759591 C22.7919867,6.00281497 16.4451375,9.0562727 11.0554374,15.1071337 C6.30607774,20.4391029 4.1749945,26.100667 3.38488363,34.412462 L3.29475058,35.4436363 C3.21114588,36.4883718 3.1468657,37.5742644 3.09956493,38.7055747 L3.05783712,39.8521821 L3.02690779,41.0300148 L3.0062558,42.2400195 C3.0036413,42.4444206 3.00143331,42.6502016 2.99962096,42.8573823 L2.99340788,44.1174205 L2.99340788,238.898952 L3.0045868,240.501878 L3.01462059,241.506784 L3.02874403,242.464656 L3.05841785,243.820656 L3.08440658,244.675705 L3.11579789,245.495529 L3.15296692,246.283502 L3.19628879,247.042999 L3.24613863,247.777392 L3.30289157,248.490056 L3.36692273,249.184365 L3.43860724,249.863693 L3.51832024,250.531413 L3.60643684,251.1909 C3.62184408,251.300316 3.6376171,251.40953 3.65376372,251.518611 L3.75518909,252.172074 L3.86595589,252.825738 L3.98643924,253.482978 L4.11701428,254.147167 C4.13963859,254.258632 4.16269903,254.370527 4.1862034,254.482922 C5.50963912,260.811445 8.12700714,266.275675 12.5235153,271.179473 C16.5028849,275.618375 21.8009162,278.320918 28.2748183,279.69602 L29.126041,279.869674 C29.4076914,279.924711 29.6875352,279.976938 29.966424,280.026474 L30.8010775,280.16713 C32.1902309,280.388497 33.5768027,280.545554 35.0672514,280.653099 L35.9748376,280.711803 L36.9124641,280.759334 C37.0715225,280.766365 37.2320455,280.772959 37.3941395,280.779132 L38.3864081,280.811235 L39.4214921,280.833942 L40.5045016,280.847961 L41.6405467,280.854003 L43.455234,280.849663 L45.9581658,280.832841 L565.19649,280.66166 L566.402749,280.653266 L567.583984,280.636297 L568.740561,280.610566 C568.931289,280.605537 569.121006,280.600134 569.309717,280.594355 L570.429994,280.555125 C570.614718,280.547823 570.798453,280.540135 570.981206,280.532059 L572.066006,280.478907 L573.127613,280.416237 C573.302635,280.404989 573.476706,280.393336 573.649833,280.381274 L574.677337,280.303974 C574.846721,280.290264 575.015177,280.276137 575.182712,280.261591 L576.176937,280.169237 C576.340821,280.152994 576.503799,280.136323 576.665879,280.11922 L577.627649,280.011387 L578.56824,279.893 L579.488019,279.76387 C579.639601,279.741442 579.790332,279.718559 579.940218,279.695217 L580.829464,279.549618 C580.976004,279.524422 581.121714,279.498759 581.266603,279.472625 L582.126141,279.310133 L582.966332,279.136144 C591.272721,277.338132 596.7319,273.787181 600.991941,267.63464 L601.203951,267.324841 C604.173361,263.005442 605.901556,258.578214 606.834068,252.923947 L606.982195,251.970016 L607.116046,250.99221 L607.236079,249.989379 C607.254959,249.820091 607.273281,249.649712 607.291057,249.478219 L607.391222,248.43569 C607.438098,247.907545 607.480223,247.368936 607.517852,246.819215 L607.587196,245.704766 L607.645014,244.559534 L607.691763,243.382367 C607.698658,243.183447 607.705111,242.983149 607.711131,242.781448 L607.742138,241.554221 L607.763223,240.29218 C607.765935,240.078875 607.768254,239.864071 607.770188,239.647745 L607.777249,238.331325 L607.6378,46.9286146 C607.6378,46.4791403 607.636281,46.0356553 607.633182,45.5979992 L607.619078,44.3023571 L607.595115,43.0407255 C607.590278,42.8332343 607.585016,42.6271201 607.579319,42.4223628 L607.539866,41.2099419 C607.532402,41.0105321 607.524487,40.8124391 607.516115,40.6156429 L607.460332,39.4502665 C607.3887,38.108441 607.293888,36.8281913 607.173223,35.602638 L607.063402,34.5653983 C606.113814,26.2013796 603.860089,20.4211714 599.386241,14.8651145 C593.347707,7.3650248 583.687904,4.27870151 569.374252,3.96299287 L568.117831,3.9424832 C567.695098,3.9357 567.268429,3.9357 566.8378,3.9357 Z M566.83785,4.9357 C582.281467,4.9357 592.457572,7.85401506 598.607342,15.4922638 C603.667633,21.7766228 605.811564,28.3774084 606.433353,38.9940922 L606.493243,40.1266302 C606.511372,40.5091936 606.527688,40.8968609 606.54225,41.2897921 L606.580736,42.4845366 C606.591851,42.8881551 606.601273,43.2971972 606.609062,43.7118227 L606.62759,44.9726093 C606.629881,45.1855854 606.63178,45.3999972 606.633292,45.6158649 L606.638025,48.0940744 L606.77725,235.480661 L606.77725,238.330373 L606.770135,239.649715 C606.768184,239.866438 606.765844,240.081593 606.763106,240.295205 L606.741818,241.558569 C606.733076,241.973653 606.722663,242.382767 606.710501,242.78611 L606.668691,243.979024 C606.660822,244.175024 606.652497,244.369631 606.643706,244.56287 L606.585286,245.706089 L606.515212,246.817673 L606.43302,247.898819 C606.403552,248.254261 606.371986,248.604829 606.338246,248.950724 L606.230426,249.974584 C605.467106,256.709499 603.803084,261.654572 600.619406,266.40547 L600.377771,266.761448 C596.943204,271.838991 592.696962,275.127115 586.645191,277.112427 L585.910248,277.344442 C584.422775,277.79609 582.829014,278.173817 581.115226,278.484349 L580.248265,278.634047 C580.102084,278.658074 579.955053,278.681642 579.807164,278.704755 L578.909482,278.838005 L577.99084,278.960523 L577.050859,279.072496 L576.089155,279.174111 C575.92704,279.190194 575.764004,279.205853 575.600039,279.221092 L574.605037,279.30752 C574.269611,279.334671 573.930406,279.360173 573.587359,279.384057 L572.546623,279.45089 L571.482448,279.508206 L570.394452,279.556191 L569.282253,279.595033 C569.094849,279.600755 568.90642,279.606103 568.716959,279.611083 L567.567741,279.636559 C567.374118,279.640077 567.179448,279.643234 566.983722,279.646032 L565.796625,279.658564 L564.5838,279.6627 L44.7024439,279.839947 L42.8388476,279.854225 C42.6367451,279.854225 42.4372673,279.854225 42.2403092,279.854225 L40.5328839,279.848094 L39.4617929,279.83434 L38.4385763,279.812046 L37.4581946,279.780518 C36.9778726,279.76233 36.5117238,279.74042 36.0569136,279.714399 L35.1615714,279.656758 C34.7206194,279.625082 34.2891161,279.589034 33.8642268,279.548225 L33.0224269,279.460146 C32.4659861,279.39704 31.9179439,279.32501 31.3715808,279.243131 L30.5524556,279.112812 L29.7308095,278.967028 C29.3185163,278.890155 28.9033881,278.807223 28.4825899,278.717842 C22.2014109,277.383677 17.0918766,274.777286 13.2680987,270.511943 C8.99442064,265.745148 6.45385799,260.441264 5.16502933,254.278228 L5.03182039,253.621748 L4.90868078,252.973385 C4.88897627,252.865815 4.86967605,252.758445 4.85077248,252.651205 L4.74204993,252.008764 L4.64248078,251.366104 L4.55169868,250.719889 L4.46933725,250.066786 L4.39503014,249.403459 C4.38329646,249.291867 4.37188311,249.179711 4.36078246,249.06692 L4.29786988,248.382006 L4.216771,247.318793 L4.15049702,246.202567 L4.11393981,245.423406 L4.06962625,244.193815 L4.03684029,242.8812 L4.02077659,241.954441 L4.00892035,240.982446 L3.99340746,238.88941 L3.99340746,237.7617 L3.99340746,44.1179543 L3.99963932,42.8598309 L4.01540954,41.6361697 L4.04124154,40.4459913 L4.07765869,39.2883164 L4.1251844,38.1621654 C4.16068736,37.4216884 4.20394495,36.7015744 4.25565503,36.0005175 L4.33964674,34.9630618 C5.07877529,26.6045651 7.13866576,21.0078399 11.8021626,15.7722663 C17.0836871,9.84285095 23.3373862,6.87843999 33.1007723,5.68566751 L34.0566577,5.57572847 C34.3789951,5.54089895 34.7050697,5.50787291 35.0349668,5.4766103 L36.0362108,5.38807265 C36.3738381,5.36029681 36.715373,5.33424434 37.0609007,5.30987517 L38.1095476,5.24177753 L39.1826625,5.18353936 L40.2807564,5.13492033 L41.4043406,5.09568009 L42.5539259,5.06557828 C42.7477187,5.06130949 42.9426161,5.05741146 43.1386288,5.05387918 L44.9331446,5.03182858 L46.1638,5.0277 L566.83785,4.9357 Z" id="Stroke-9"></path>
                        <path d="M569.3048,1.6736 L43.5807467,1.7676 C43.1678372,1.7676 42.75941,1.76933863 42.3553783,1.77285692 L41.1563833,1.78879179 C40.761056,1.79591042 40.3700375,1.80484975 39.983241,1.81565079 L38.8354308,1.85368009 C38.6462112,1.86096285 38.4580254,1.86872129 38.2708626,1.87696054 L37.1600747,1.93220689 C23.9758446,2.66538519 15.9822577,5.94428533 9.13141921,13.6831803 C2.6310664,21.0270368 0.397839629,29.01816 0.0499889666,41.5237242 L0.021770426,42.7684748 L-0.0002,44.0431608 C-0.0002,44.2581485 -0.0002,44.4744176 -0.0002,44.6919851 L-0.0002,239.2406 C-0.0002,240.326285 0.0113796255,241.38141 0.0358478568,242.408128 L0.0714800399,243.626692 L0.119987933,244.818811 L0.181874184,245.985313 C0.85784682,257.33267 3.54714381,265.084295 10.4004615,272.777193 C14.3800844,277.243457 19.5389371,280.04623 25.7495158,281.555876 C26.1866776,281.66214 26.6176022,281.761064 27.0451007,281.853101 L27.8963628,282.028125 C30.1586559,282.471079 32.3768077,282.726663 34.9772973,282.863303 L35.971236,282.909102 C36.1401571,282.91585 36.31078,282.922167 36.4832087,282.92807 L37.5402846,282.958644 L38.6456991,282.980073 L39.80445,282.993156 L41.0215353,282.998697 L43.2019348,282.994958 L567.641138,282.820403 L568.847023,282.810755 C569.244866,282.805912 569.63861,282.799432 570.028316,282.791284 L571.18538,282.761808 C571.567069,282.750295 571.944781,282.737083 572.318573,282.722143 L573.428257,282.672107 C573.611266,282.662893 573.793309,282.653239 573.974396,282.643142 L575.049491,282.577206 C575.404068,282.553433 575.754877,282.527854 576.101977,282.500441 L577.132215,282.412665 C577.47196,282.38155 577.808056,282.34857 578.140565,282.313694 L579.127386,282.203347 L580.09304,282.081439 C580.252239,282.060148 580.41057,282.038367 580.568042,282.016093 L581.50262,281.876503 C581.656684,281.852241 581.809904,281.827479 581.962287,281.802213 L582.8666,281.644528 C592.406758,279.897332 598.580284,276.052416 603.354957,269.111193 L603.577753,268.783552 C608.492904,261.589217 610.324125,254.038536 610.599201,242.529288 L610.623439,241.234009 L610.635335,239.905052 L610.4948,45.3485147 C610.4948,30.5734505 608.224086,21.7999665 601.515192,13.4161991 C594.896991,5.14460794 584.271965,1.6736 569.3048,1.6736 Z M42.9667856,2.76890333 L569.304851,2.6736 C583.998389,2.6736 594.343153,6.05305132 600.734387,14.0409742 C605.970239,20.5839544 608.435392,27.3712903 609.212019,37.2835107 L609.294198,38.4412601 C609.418879,40.3945019 609.482654,42.4674062 609.493219,44.6804592 L609.6368,236.923212 L609.6368,239.227762 C609.6368,239.676116 609.6368,240.118586 609.6368,240.555355 L609.613416,241.84874 C609.589732,243.125385 609.547607,244.352357 609.485012,245.534574 L609.415518,246.702054 C608.829268,255.541154 607.000047,261.84598 603.013042,267.832544 L602.749951,268.222544 C597.901616,275.43464 591.565864,279.274463 581.377616,280.885297 L580.454874,281.023623 C579.677235,281.133979 578.877748,281.232113 578.05543,281.318497 L577.057627,281.41655 C576.72133,281.447375 576.381318,281.47635 576.037527,281.503507 L574.994755,281.57955 C574.819049,281.591324 574.642383,281.602652 574.464749,281.613536 L573.387259,281.673551 L572.286153,281.723109 C572.100646,281.730507 571.91414,281.737477 571.726626,281.744023 L570.589387,281.778237 L569.427588,281.802449 L568.240852,281.816843 C568.040963,281.818434 567.84002,281.819623 567.638014,281.820414 L41.0317441,281.998703 L39.8278617,281.993268 L38.6821034,281.980416 L37.5895429,281.959364 L36.5452536,281.929333 L35.5443091,281.889541 L34.581783,281.839207 L33.6527488,281.777549 C33.5004271,281.766286 33.3492956,281.754518 33.1992517,281.74223 L32.3112183,281.662122 C30.9962817,281.532198 29.7528135,281.357466 28.5059932,281.126061 L27.6734621,280.963264 C27.1170155,280.848963 26.5566224,280.722945 25.9857144,280.584171 C19.9601885,279.119507 14.9804128,276.414026 11.1471055,272.11197 C4.4798834,264.627965 1.85149978,257.08225 1.18291073,245.971099 L1.12065204,244.808808 C1.09293292,244.221159 1.07026521,243.623648 1.05236121,243.01579 L1.02281956,241.786135 C1.01503271,241.371555 1.00927782,240.952233 0.9998,240.528025 L0.9998,239.2406 L0.9998,45.3486 L0.9998,44.0439174 L1.02191048,42.7708351 C1.02939363,42.3516468 1.03883231,41.9375836 1.05031126,41.5285042 L1.09095368,40.3160753 L1.14434619,39.1326993 C1.19429372,38.1584221 1.25805224,37.2135238 1.33694585,36.2957929 L1.43896775,35.2074148 C2.33286034,26.4231783 4.73119331,20.163154 9.8802005,14.3459974 C15.3081717,8.21441237 21.47436,4.96413429 30.5910993,3.58678427 L31.5448261,3.45093952 C31.705565,3.42939845 31.8672036,3.40840381 32.0297534,3.38795042 L33.0160762,3.27168375 C34.6784721,3.08859319 36.434247,2.95859414 38.2947396,2.87651842 L39.4236921,2.83298244 L40.578321,2.80069998 C40.7729291,2.79624358 40.9686298,2.79224574 41.1654343,2.78870129 L42.3595986,2.77283398 C42.5608639,2.77108243 42.7632558,2.76977393 42.9667856,2.76890333 Z" id="Stroke-11"></path>
                        <path d="M227.9176,-0.1885 C228.008244,-0.1885 228.096588,-0.163875783 228.173515,-0.118044533 L228.2463,-0.0652708348 L229.4063,0.946729165 C229.493372,1.02269159 229.550761,1.12580767 229.570233,1.23796744 L229.5776,1.3235 L229.5776,2.2485 C229.5776,2.52464237 229.353742,2.7485 229.0776,2.7485 C228.83214,2.7485 228.627992,2.57162484 228.585656,2.33837563 L228.5776,2.2485 L228.577,1.551 L227.729,0.811 L156.028,0.811 L155.235,1.542 L155.2356,2.2485 C155.2356,2.49395989 155.058725,2.69810837 154.825476,2.74044433 L154.7356,2.7485 C154.49014,2.7485 154.285992,2.57162484 154.243656,2.33837563 L154.2356,2.2485 L154.2356,1.3235 C154.2356,1.21181861 154.272952,1.10420571 154.340429,1.01716291 L154.396571,0.955995544 L155.493571,-0.0560044557 C155.562833,-0.119899192 155.648232,-0.162480568 155.739608,-0.179777834 L155.8326,-0.1885 L227.9176,-0.1885 Z" id="Stroke-13"></path>
                        <path d="M292.7526,-0.1881 C292.848185,-0.1881 292.941064,-0.16072455 293.020666,-0.110169085 L293.09545,-0.0520423355 L294.04445,0.841957665 C294.124683,0.917540987 294.177119,1.01693165 294.194884,1.12421053 L294.2016,1.2059 L294.2016,2.2229 C294.2016,2.49904237 293.977742,2.7229 293.7016,2.7229 C293.45614,2.7229 293.251992,2.54602484 293.209656,2.31277563 L293.2016,2.2229 L293.201,1.421 L292.553,0.811 L253.093,0.811 L252.445,1.421 L252.4456,2.2309 C252.4456,2.47635989 252.268725,2.68050837 252.035476,2.72284433 L251.9456,2.7309 C251.70014,2.7309 251.495992,2.55402484 251.453656,2.32077563 L251.4456,2.2309 L251.4456,1.2059 C251.4456,1.09567196 251.481989,0.989352346 251.547895,0.902860297 L251.60275,0.841957665 L252.55175,-0.0520423355 C252.621325,-0.117584984 252.707702,-0.161346096 252.800308,-0.179130237 L252.8946,-0.1881 L292.7526,-0.1881 Z" id="Stroke-15"></path>
                        <path d="M7.8436499,111.591075 L7.8316499,111.599075 C7.63855157,111.72375 7.35934405,111.950539 7.07993074,112.270419 C6.64732158,112.765682 6.36490501,113.327606 6.31274779,113.950295 L6.30399419,114.176623 L6.17100085,170.588177 C6.17100085,170.705273 6.18615911,170.821795 6.2150659,170.938206 C6.32610409,171.385366 6.62849411,171.813683 7.06108495,172.237505 C7.23788341,172.410719 7.42560142,172.57165 7.61329742,172.717241 L7.7643853,172.831114 L7.87164867,172.906784 C8.04343639,173.022509 8.26879131,173.020331 8.4383111,172.901309 L8.60973629,172.772722 C8.63403842,172.753656 8.65992328,172.733059 8.68722198,172.710989 C8.86773883,172.56505 9.04824907,172.40376 9.21822955,172.230189 C9.63322856,171.806422 9.92332864,171.378151 10.0292464,170.933588 C10.0475153,170.856909 10.0599828,170.780254 10.0662646,170.703743 L10.0709939,170.576308 L9.93799931,114.159267 C9.938,113.513975 9.68953759,112.92629 9.27462198,112.405206 C9.01007079,112.072962 8.71818143,111.814325 8.45756616,111.631588 L8.40560499,111.596004 C8.23701745,111.479289 8.01425881,111.477336 7.8436499,111.591075 Z M8.04001561,112.711832 L8.122,112.635 L8.14072792,112.650572 C8.58755648,113.037719 8.938,113.568802 8.938,114.1601 L9.071,170.5891 C9.071,170.622982 9.06631369,170.660526 9.05647448,170.701824 C9.00172379,170.931626 8.80308574,171.224873 8.50377045,171.530511 L8.38327056,171.649483 C8.30335564,171.725822 8.22484711,171.795967 8.144,171.864 L8.12951027,171.852082 C8.01392597,171.758057 7.8870493,171.646773 7.76091505,171.523195 C7.44900929,171.217612 7.24201027,170.924411 7.18559118,170.697206 C7.17568191,170.657301 7.171,170.621313 7.171,170.5891 L7.304,114.1601 C7.304,113.727649 7.49812111,113.311739 7.83306926,112.928281 C7.90305649,112.848158 7.97306659,112.775774 8.04001561,112.711832 Z" id="Stroke-17"></path>
                        <polygon id="Stroke-19" points="577.331427 24.5312476 578.132173 26.3639524 329.313173 135.077952 328.512427 133.245248"></polygon>
                        <polygon id="Stroke-21" points="272.740825 157.613249 273.541575 159.445951 27.1525749 267.098951 26.3518251 265.266249"></polygon>
                    </g>
                    <text id="16.3cm" font-family="OpenSans-Semibold, Open Sans" font-size="18" font-weight="500">
                        <tspan x="271.1465" y="152.280805">16.3cm</tspan>
                    </text>
                </g>
            </g>
        </g>
    </g>
</svg>