<?xml version="1.0" encoding="UTF-8"?>
<svg width="203px" height="60px" viewBox="0 0 203 60" version="1.1" xmlns="http://www.w3.org/2000/svg" xmlns:xlink="http://www.w3.org/1999/xlink">
    <title>108</title>
    <g id="8pro_overview" stroke="none" stroke-width="1" fill="none" fill-rule="evenodd">
        <g id="8pro_pc_overview1" transform="translate(-771.000000, -1060.000000)" fill="#FF5E42" fill-rule="nonzero">
            <g id="2_8point" transform="translate(0.000000, 800.000000)">
                <g id="1" transform="translate(730.000000, 120.000000)">
                    <path d="M212.293529,199.67033 L212.293529,189.963187 L217.418946,196.906044 L217.835223,196.906044 L222.96064,189.941758 L222.96064,199.67033 L226.525017,199.67033 L226.525017,184.67033 L222.830554,184.67033 L217.627085,191.763187 L212.397598,184.67033 L208.703135,184.67033 L208.703135,199.67033 L212.293529,199.67033 Z M234.581721,199.67033 L234.581721,194.741758 L237.781855,194.741758 C241.294196,194.741758 244,192.513187 244,189.706044 C244,186.898901 241.294196,184.67033 237.781855,184.67033 L230.991328,184.67033 L230.991328,199.67033 L234.581721,199.67033 Z M237.781855,191.977473 L234.581721,191.977473 L234.581721,187.434615 L237.781855,187.434615 C239.316878,187.434615 240.435624,188.398901 240.435624,189.706044 C240.435624,190.991758 239.316878,191.977473 237.781855,191.977473 Z M71.4202802,198.846154 L71.4202802,141.153846 L59.4122748,141.153846 L41,146.510989 L44.4022682,156.236264 L57.611074,153.186813 L57.611074,198.846154 L71.4202802,198.846154 Z M111.146765,200 C129.058706,200 139.165444,187.802198 139.165444,170 C139.165444,152.197802 129.058706,140 111.146765,140 C93.3348899,140 83.1280854,152.197802 83.1280854,170 C83.1280854,187.802198 93.3348899,200 111.146765,200 Z M111.146765,188.873626 C101.740494,188.873626 96.9372915,182.197802 96.9372915,170 C96.9372915,157.802198 101.740494,151.043956 111.146765,151.043956 C120.553035,151.043956 125.456304,157.802198 125.456304,170 C125.456304,182.197802 120.553035,188.873626 111.146765,188.873626 Z M172.087392,200 C187.597732,200 197.204136,193.406593 197.204136,182.774725 C197.204136,176.923077 193.701801,171.895604 187.497665,168.846154 C192.000667,166.208791 194.802535,162.252747 194.802535,156.895604 C194.802535,145.769231 184.395597,140 172.087392,140 C159.779186,140 149.272181,145.769231 149.272181,156.895604 C149.272181,162.252747 152.174116,166.208791 156.577051,168.846154 C150.472982,171.895604 146.970647,176.923077 146.970647,182.774725 C146.970647,193.406593 156.476985,200 172.087392,200 Z M172.087392,164.313187 C166.883923,164.313187 163.081388,161.675824 163.081388,157.472527 C163.081388,153.186813 166.883923,150.714286 172.087392,150.714286 C177.290861,150.714286 181.093396,153.186813 181.093396,157.472527 C181.093396,161.675824 177.290861,164.313187 172.087392,164.313187 Z M172.087392,189.285714 C165.482989,189.285714 160.679787,186.483516 160.679787,181.291209 C160.679787,176.181319 165.482989,173.379121 172.087392,173.379121 C178.691795,173.379121 183.494997,176.181319 183.494997,181.291209 C183.494997,186.483516 178.691795,189.285714 172.087392,189.285714 Z" id="108"></path>
                </g>
            </g>
        </g>
    </g>
</svg>