<?xml version="1.0" encoding="UTF-8"?>
<svg width="105px" height="32px" viewBox="0 0 105 32" version="1.1" xmlns="http://www.w3.org/2000/svg" xmlns:xlink="http://www.w3.org/1999/xlink">
    <title>108</title>
    <g id="8pro_overview" stroke="none" stroke-width="1" fill="none" fill-rule="evenodd">
        <g id="8pro_h5_overview" transform="translate(-50.000000, -689.000000)" fill="#FF5E42" fill-rule="nonzero">
            <g id="2_8point" transform="translate(0.000000, 600.000000)">
                <g id="1" transform="translate(24.000000, 40.000000)">
                    <path d="M114.287722,80.8241758 L114.287722,75.647033 L116.989297,79.3498901 L117.208714,79.3498901 L119.910288,75.6356044 L119.910288,80.8241758 L121.789048,80.8241758 L121.789048,72.8241758 L119.84172,72.8241758 L117.099005,76.607033 L114.342576,72.8241758 L112.395249,72.8241758 L112.395249,80.8241758 L114.287722,80.8241758 Z M126.035686,80.8241758 L126.035686,78.1956044 L127.722455,78.1956044 C129.573788,78.1956044 131,77.007033 131,75.5098901 C131,74.0127473 129.573788,72.8241758 127.722455,72.8241758 L124.143212,72.8241758 L124.143212,80.8241758 L126.035686,80.8241758 Z M127.722455,76.7213187 L126.035686,76.7213187 L126.035686,74.2984615 L127.722455,74.2984615 C128.531556,74.2984615 129.12124,74.8127473 129.12124,75.5098901 C129.12124,76.1956044 128.531556,76.7213187 127.722455,76.7213187 Z M42.0343349,80.3846154 L42.0343349,49.6153846 L35.7049922,49.6153846 L26,52.4725275 L27.7933138,57.6593407 L34.7555908,56.032967 L34.7555908,80.3846154 L42.0343349,80.3846154 Z M62.9739104,81 C72.4151799,81 77.7423767,74.4945055 77.7423767,65 C77.7423767,55.5054945 72.4151799,49 62.9739104,49 C53.5853853,49 48.205444,55.5054945 48.205444,65 C48.205444,74.4945055 53.5853853,81 62.9739104,81 Z M62.9739104,75.0659341 C58.0159252,75.0659341 55.4841881,71.5054945 55.4841881,65 C55.4841881,58.4945055 58.0159252,54.8901099 62.9739104,54.8901099 C67.9318955,54.8901099 70.5163771,58.4945055 70.5163771,65 C70.5163771,71.5054945 67.9318955,75.0659341 62.9739104,75.0659341 Z M95.0953246,81 C103.270726,81 108.3342,77.4835165 108.3342,71.8131868 C108.3342,68.6923077 106.488142,66.010989 103.217981,64.3846154 C105.591485,62.978022 107.068331,60.8681319 107.068331,58.010989 C107.068331,52.0769231 101.582901,49 95.0953246,49 C88.6077484,49 83.0695735,52.0769231 83.0695735,58.010989 C83.0695735,60.8681319 84.5991646,62.978022 86.9199236,64.3846154 C83.7025077,66.010989 81.8564495,68.6923077 81.8564495,71.8131868 C81.8564495,77.4835165 86.8671791,81 95.0953246,81 Z M95.0953246,61.967033 C92.3526095,61.967033 90.3483176,60.5604396 90.3483176,58.3186813 C90.3483176,56.032967 92.3526095,54.7142857 95.0953246,54.7142857 C97.8380398,54.7142857 99.8423317,56.032967 99.8423317,58.3186813 C99.8423317,60.5604396 97.8380398,61.967033 95.0953246,61.967033 Z M95.0953246,75.2857143 C91.6141861,75.2857143 89.0824491,73.7912088 89.0824491,71.021978 C89.0824491,68.2967033 91.6141861,66.8021978 95.0953246,66.8021978 C98.5764631,66.8021978 101.1082,68.2967033 101.1082,71.021978 C101.1082,73.7912088 98.5764631,75.2857143 95.0953246,75.2857143 Z" id="108"></path>
                </g>
            </g>
        </g>
    </g>
</svg>