<?xml version="1.0" encoding="UTF-8"?>
<svg width="30px" height="31px" viewBox="0 0 30 31" version="1.1" xmlns="http://www.w3.org/2000/svg" xmlns:xlink="http://www.w3.org/1999/xlink">
    <title>icon_1</title>
    <defs>
        <path d="M30,0.380080024 L30,30.38008 L0,30.38008 L0,0.380080024 L30,0.380080024 Z M28.8931043,15.38008 C24.5594601,17.6304902 19.9284233,18.7556923 15,18.7556923 C10.0715767,18.7556923 5.46211718,17.6304902 1.17162822,15.38008 L1.17162822,29.170327 L28.8931043,29.170327 L28.8931043,15.38008 Z M9.5794908,21.0372106 L9.5794908,25.0090857 C9.60717791,25.5498376 9.9210184,25.8202135 10.5210245,25.8202135 C11.1210245,25.8202135 11.4636074,25.5498376 11.5487607,25.0090857 L11.5487607,21.0372106 L12.5683558,21.0372106 L12.5683558,24.9017304 C12.5649325,25.016421 12.5607975,25.0916745 12.5559509,25.1274896 C12.4066994,26.2303325 11.7409264,26.7210884 10.570184,26.7210884 C9.34241104,26.7210884 8.67635583,26.1898888 8.57201227,25.1274896 L8.57201227,21.0372106 L9.5794908,21.0372106 Z M21.1515092,21.0372106 L21.1515092,26.608641 L20.1085644,26.608641 L20.1085644,21.0372106 L21.1515092,21.0372106 Z M16.071362,21.0372106 C16.4119509,21.0372106 16.7629387,21.1008719 17.1243129,21.2281882 C17.4887914,21.368227 17.8139571,21.6315902 18.0998098,22.0182596 C18.3856626,22.4049351 18.5285828,23.0476025 18.5285828,23.9462678 C18.5285828,24.7194817 18.2939877,25.3642441 17.8248037,25.8805527 C17.3627178,26.3890386 16.697546,26.6231488 15.8292761,26.5828839 L15.7890613,26.5808304 L14.2803436,26.5808304 L14.2803436,21.0372106 L16.071362,21.0372106 Z M5.62789693,21.0372106 L7.43749693,26.5808304 L6.32576074,26.5808304 L5.8528816,25.2542066 L3.9023589,25.2542066 L3.44134417,26.5808304 L2.36842086,26.5808304 L4.23810061,21.0372106 L5.62789693,21.0372106 Z M25.0920245,21.8243494 C24.6771043,21.8320637 24.3573865,22.0160984 24.1328589,22.3764474 C23.7886994,22.9288025 23.784454,23.3882066 23.784454,23.8121984 C23.784454,24.2319474 23.9195092,25.770659 25.0572393,25.8013912 L25.0920245,25.8018584 C26.2501043,25.8018584 26.3967301,24.2673419 26.399546,23.8252576 L26.399589,23.8121984 C26.399589,23.3882066 26.3953436,22.9288025 26.051184,22.3764474 C25.8313374,22.0236045 25.5202209,21.8398086 25.1178344,21.8250596 L25.0920245,21.8243494 Z M16.0272577,21.9275188 L15.3209387,21.9275188 L15.3209387,25.6968761 C15.9062454,25.7076174 16.2952331,25.6785186 16.4879141,25.6095804 C17.0282209,25.4162641 17.2338834,25.0071039 17.2838037,24.9138278 C17.5147301,24.4823451 17.5727669,23.04718 17.1423252,22.5075841 C16.7182086,21.975929 16.290681,21.9288168 16.0272577,21.9275188 Z M4.9029589,21.8941882 L4.12286319,24.3162357 L5.61754663,24.3162357 L4.9029589,21.8941882 Z M25.5050736,6.323129 C24.9792025,6.35588411 24.5117485,6.56053921 24.1027239,6.93710655 C23.7958037,7.25532084 23.6423436,7.64265145 23.6423436,8.09911064 C23.6423436,8.78379635 23.9064601,9.21553309 24.2444294,9.54153513 C24.5823988,9.86753104 25.4969264,10.2640515 25.7482393,10.408731 C25.9995521,10.5534106 26.2253804,10.7593576 26.2938896,10.9539168 C26.3623988,11.1484698 26.3199141,11.5208923 26.1510245,11.7511698 C25.9821411,11.9814412 25.4317239,12.0651964 25.0100982,12.0048474 C24.7368221,11.965731 24.356362,11.8544861 23.8687117,11.6711066 L23.8266503,11.6552127 L23.565589,12.7468637 C23.6452761,12.7805127 23.7322945,12.8143331 23.8266503,12.848331 C23.9210061,12.882329 24.085092,12.9330229 24.3188957,13.0004188 C25.2717914,13.2007882 26.0373558,13.1500943 26.6155951,12.848331 C27.1938282,12.5465678 27.5092086,12.0658392 27.5617362,11.4061453 C27.6001227,11.0711494 27.5633129,10.7386821 27.4513067,10.408731 C27.2833067,9.91380451 26.6839877,9.52556778 26.3785399,9.3479739 C26.0730982,9.17038002 25.7482393,9.07854941 25.2286196,8.78237594 C24.8822025,8.58493309 24.7900552,8.26056574 24.9521595,7.80929227 C25.140362,7.52197798 25.4331472,7.37832084 25.8305092,7.37832084 C26.2136871,7.37832084 26.6159755,7.45501064 27.0373742,7.60839023 L27.0842761,7.62574737 L27.3294356,6.58605757 C26.6390736,6.37802288 26.0309509,6.29038002 25.5050736,6.323129 Z M20.845773,6.27400247 C20.0489877,6.27400247 19.4073742,6.69388002 18.9209264,7.53363513 C18.6150245,8.14733104 18.4620736,8.90339839 18.4620736,9.80184329 C18.4620736,10.7002882 18.6734233,11.4469086 19.0961288,12.0417045 C19.3783497,12.4512106 19.7791104,12.7493004 20.2984233,12.9359739 C20.8059325,13.1184106 21.3946319,13.1591678 22.0645092,13.0582515 L22.1113804,13.0509841 L22.6143865,12.9359739 L22.4769018,11.8516759 L22.4391534,11.8668045 C22.0350675,12.0250637 21.5851779,12.0833678 21.0894724,12.0417045 C20.3226748,11.9772657 19.8149202,11.1911372 19.739865,10.8332617 C19.694,10.6145555 19.6651779,10.3926841 19.6533926,10.1676474 L19.6506012,10.1061902 L23.1072454,10.1061902 L23.1091472,10.0518964 C23.1407485,9.09656166 23.0717485,8.34607186 22.9021411,7.80042084 C22.6429264,6.96650655 22.0409509,6.27400247 20.845773,6.27400247 Z M3.80368098,4.66579431 L2.63803681,4.66579431 L2.63803681,13.0535494 L3.80368098,13.0535494 L3.80368098,9.31885553 L6.44171779,9.31885553 L6.44171779,13.0535494 L7.60736196,13.0535494 L7.60736196,4.66579431 L6.44171779,4.66579431 L6.44171779,8.21681472 L3.80368098,8.21681472 L3.80368098,4.66579431 Z M15.5728834,4.66579431 L13.2515337,4.66579431 L13.2515337,13.0535494 L14.4171779,13.0535494 L14.4171779,9.502529 L15.3341104,9.502529 C15.6895092,9.502529 15.9295767,9.58231064 16.054319,9.7418739 C16.1733865,9.89418819 16.2719693,10.0938841 16.3500798,10.3409739 L16.3610982,10.3765943 L16.8941963,13.0535494 L18.1221902,13.0535494 C17.6390429,10.9585821 17.3546748,9.77491064 17.2690859,9.502529 C17.1859387,9.237929 17.0157423,9.05972288 16.7584908,8.96791064 L16.7355706,8.96003104 L16.7355706,8.85967186 C16.7355706,8.85967186 17.2574049,8.63024533 17.555135,8.09482492 C17.7814479,7.68783513 17.8034785,7.00952288 17.8034785,6.67067594 C17.8034785,6.25894737 17.7133067,5.961329 17.6030613,5.73650043 C17.5032147,5.53286778 17.4809877,5.47993309 17.2690859,5.26010655 C16.8871595,4.86389839 16.3217546,4.66579431 15.5728834,4.66579431 Z M10,7.05354941 L8.83435583,7.05354941 L8.83435583,13.0535494 L10,13.0535494 L10,7.05354941 Z M12.2699387,8.21681472 L10.9815951,8.21681472 L10.9815951,9.502529 L12.2699387,9.502529 L12.2699387,8.21681472 Z M20.9479141,7.30175962 C21.6323865,7.30175962 21.9713006,7.88223513 21.9646626,9.04319227 L21.9643558,9.07854941 L19.6900061,9.07854941 C19.7418405,8.57330655 19.8057607,8.23183309 19.8817546,8.05412288 C20.1010859,7.54127594 20.4929816,7.30175962 20.9479141,7.30175962 Z M14.4171779,5.80946778 L15.7472822,5.80952288 C15.9994356,5.80952288 16.7355706,6.08109635 16.7355706,7.14879635 C16.7355706,7.85212492 16.3867914,8.26613104 15.6892331,8.39082084 L15.663865,8.39519839 L14.4171779,8.39516166 L14.4171779,5.80946778 L15.7472822,5.80952288 L14.4171779,5.80946778 Z M10,4.66579431 L8.83435583,4.66579431 L8.83435583,5.89028411 L10,5.89028411 L10,4.66579431 Z M25.0919632,20.9354066 L25.0920491,20.9298168 C25.7797791,20.9427535 26.4483129,21.1950535 26.9094847,21.9275188 C27.2253558,22.4291984 27.393092,23.0797453 27.4126871,23.8791474 C27.3883374,24.3003804 27.3597301,24.5869906 27.326865,24.7389804 C27.2143681,25.2592233 27.0537055,25.511789 27.0067975,25.5988704 C26.9076135,25.7829964 26.3454294,26.6619615 25.1389448,26.6968717 L25.1021902,26.6976694 L25.0920736,26.6977166 L25.0920368,26.6978182 C25.0829509,26.6979412 25.0738221,26.6979412 25.0646564,26.6979412 C23.806908,26.6979412 23.2784479,25.7867353 23.1772454,25.5988704 C23.1303374,25.511789 22.9696748,25.2592233 22.8571779,24.7389804 C22.8243129,24.5869906 22.7957055,24.3003804 22.7713558,23.8791474 C22.7909509,23.0797453 22.9586871,22.4291984 23.2745583,21.9275188 C23.7357362,21.1950535 24.4042638,20.9427535 25.0919939,20.9298168 L25.0919632,20.9354066 Z" id="path-1"></path>
    </defs>
    <g id="8pro_overview" stroke="none" stroke-width="1" fill="none" fill-rule="evenodd">
        <g id="8pro_h5_overview" transform="translate(-115.000000, -17293.000000)">
            <g id="22_more" transform="translate(0.000000, 16991.000000)">
                <g id="22_speaker" transform="translate(24.000000, 60.000000)">
                    <g id="icon_1" transform="translate(91.000000, 242.000000)">
                        <mask id="mask-2" fill="white">
                            <use xlink:href="#path-1"></use>
                        </mask>
                        <g id="Clip-2"></g>
                        <polygon id="Fill-1" fill="#FFFFFF" mask="url(#mask-2)" points="0 0.380080024 30 0.380080024 30 30.38008 0 30.38008"></polygon>
                    </g>
                </g>
            </g>
        </g>
    </g>
</svg>