<?xml version="1.0" encoding="UTF-8"?>
<svg width="73px" height="73px" viewBox="0 0 73 73" version="1.1" xmlns="http://www.w3.org/2000/svg" xmlns:xlink="http://www.w3.org/1999/xlink">
    <title>p_hires_ic</title>
    <defs>
        <path d="M73,0 L73,73 L0,73 L0,0 L73,0 Z M70.3065538,36.5 C59.761353,41.9759982 48.4924967,44.7139898 36.5,44.7139898 C24.5075033,44.7139898 13.2911518,41.9759982 2.850962,36.5 L2.850962,70.0562676 L70.3065538,70.0562676 L70.3065538,36.5 Z M23.3100943,50.2656845 L23.3100943,59.9305806 C23.3774663,61.24641 24.1411448,61.9043248 25.6011597,61.9043248 C27.0611597,61.9043248 27.8947779,61.24641 28.1019845,59.9305806 L28.1019845,50.2656845 L30.5829992,50.2656845 L30.5829992,59.6693493 C30.5746691,59.9484298 30.5646074,60.1315466 30.5528139,60.2186967 C30.1896352,62.902281 28.5695875,64.0964537 25.7207812,64.0964537 C22.7332002,64.0964537 21.1124658,62.803868 20.8585632,60.2186967 L20.8585632,50.2656845 L23.3100943,50.2656845 Z M51.4686724,50.2656845 L51.4686724,63.8228318 L48.9308401,63.8228318 L48.9308401,50.2656845 L51.4686724,50.2656845 Z M39.1069808,50.2656845 C39.9357472,50.2656845 40.7898174,50.4205935 41.6691613,50.7303965 C42.5560591,51.0711576 43.3472955,51.7120082 44.0428706,52.6529037 C44.7384456,53.5938141 45.0862182,55.157638 45.0862182,57.3443902 C45.0862182,59.2258773 44.5153701,60.7947993 43.373689,62.0511501 C42.24928,63.2884659 40.6306953,63.858134 38.5179051,63.7601561 L38.4200493,63.7551593 L34.748836,63.7551593 L34.748836,50.2656845 L39.1069808,50.2656845 Z M13.6945492,50.2656845 L18.0979092,63.7551593 L15.3926845,63.7551593 L14.2420119,60.5270412 L9.49573998,60.5270412 L8.37393748,63.7551593 L5.76315742,63.7551593 L10.3127115,50.2656845 L13.6945492,50.2656845 Z M61.0572597,52.1810555 C60.0476204,52.1998269 59.2696405,52.6476447 58.72329,53.5244939 C57.8858352,54.868558 57.8755047,55.9864412 57.8755047,57.0181547 C57.8755047,58.0395439 58.2041391,61.7837422 60.9726155,61.858524 L61.0572597,61.8596607 C63.8752538,61.8596607 64.2320431,58.1256705 64.2388953,57.049932 L64.2389998,57.0181547 C64.2389998,55.9864412 64.2286693,54.868558 63.3912145,53.5244939 C62.8562544,52.6659096 62.0992041,52.2186729 61.1200636,52.1827837 L61.0572597,52.1810555 Z M38.9996603,52.432101 L37.2809507,52.432101 L37.2809507,61.6042039 C38.7051971,61.6303409 39.6517339,61.5595339 40.120591,61.3917843 C41.4353374,60.9213813 41.935783,59.9257581 42.0572556,59.6987862 C42.6191765,58.6488451 42.7603994,55.15661 41.7129912,53.8435933 C40.6809742,52.5498992 39.6406571,52.4352594 38.9996603,52.432101 Z M11.9305333,52.3509965 L10.0323004,58.2446456 L13.6693635,58.2446456 L11.9305333,52.3509965 Z M62.0623458,14.4614192 C60.782726,14.5411233 59.6452546,15.0391173 58.6499616,15.9554312 C57.9031223,16.7297527 57.5297027,17.6722571 57.5297027,18.7829745 C57.5297027,20.4490431 58.1723863,21.4996024 58.9947783,22.2928741 C59.8171703,23.0861308 62.0425209,24.0509971 62.6540489,24.4030508 C63.2655769,24.7551045 63.8150922,25.256242 63.981798,25.7296694 C64.1485037,26.2030818 64.0451243,27.1093098 63.6341597,27.6696518 C63.22321,28.229979 61.8838616,28.4337831 60.8579055,28.2869339 C60.1929337,28.1917508 59.2671474,27.9210549 58.0805317,27.4748312 L57.9781824,27.4361561 L57.3429331,30.0925069 C57.5368384,30.1743861 57.7485832,30.2566824 57.9781824,30.3394108 C58.2077816,30.4221392 58.6070573,30.5454943 59.1759796,30.709491 C61.4946924,31.1970565 63.3575658,31.0737014 64.7646147,30.3394108 C66.1716487,29.6051202 66.9390742,28.4353473 67.0668914,26.8300922 C67.1602986,26.0149355 67.070728,25.2059316 66.7981798,24.4030508 C66.3893798,23.1987296 64.9310368,22.2540202 64.1877804,21.8218751 C63.4445389,21.38973 62.6540489,21.1662755 61.3896411,20.4455867 C60.5466926,19.9651424 60.3224677,19.1758486 60.7169215,18.0777498 C61.1748808,17.3786184 61.8873249,17.0290527 62.8542391,17.0290527 C63.7866387,17.0290527 64.7655403,17.2156645 65.790944,17.5888882 L65.9050718,17.6311239 L66.5016266,15.101212 C64.8217458,14.5949943 63.3419806,14.38173 62.0623458,14.4614192 Z M50.7247143,14.341878 C48.7858701,14.341878 47.2246106,15.36358 46.0409209,17.4069841 C45.2965597,18.9003108 44.9243791,20.7400747 44.9243791,22.9262906 C44.9243791,25.1125065 45.4386634,26.9292829 46.4672468,28.3766196 C47.1539843,29.3730845 48.1291687,30.0984363 49.3928301,30.5526751 C50.6277691,30.9966045 52.060271,31.0957802 53.6903057,30.8502171 L53.8043589,30.8325333 L55.0283405,30.5526751 L54.6937945,27.9142167 L54.6019399,27.9510296 C53.6186642,28.3361269 52.5239329,28.4780002 51.3177162,28.3766196 C49.4518421,28.2198186 48.2163059,26.3069057 48.0336716,25.4360753 C47.9220667,24.9038904 47.8519329,24.3640033 47.8232554,23.8164139 L47.816463,23.6668682 L56.2276305,23.6668682 L56.2322583,23.5347531 C56.3091546,21.2101053 56.1412546,19.3839135 55.7285434,18.0561627 C55.0977875,16.0269712 53.6329806,14.341878 50.7247143,14.341878 Z M9.25562372,10.4285714 L6.4192229,10.4285714 L6.4192229,30.8387755 L9.25562372,30.8387755 L9.25562372,21.7510204 L15.6748466,21.7510204 L15.6748466,30.8387755 L18.5112474,30.8387755 L18.5112474,10.4285714 L15.6748466,10.4285714 L15.6748466,19.0693878 L9.25562372,19.0693878 L9.25562372,10.4285714 Z M37.8940164,10.4285714 L32.2453988,10.4285714 L32.2453988,30.8387755 L35.0817996,30.8387755 L35.0817996,22.1979592 L37.313002,22.1979592 C38.1778057,22.1979592 38.7619699,22.3920945 39.0655096,22.7803651 C39.3552405,23.1509965 39.5951254,23.6369233 39.7851941,24.2381751 L39.8120055,24.3248514 L41.109211,30.8387755 L44.0973294,30.8387755 C42.9216712,25.7410216 42.2297088,22.8607545 42.0214423,22.1979592 C41.8191174,21.5540992 41.404973,21.1204643 40.7789943,20.8970545 L40.7232217,20.8778808 L40.7232217,20.6336735 C40.7232217,20.6336735 41.9930186,20.0754022 42.7174951,18.7725459 C43.2681898,17.7822041 43.3217978,16.1316443 43.3217978,15.3071167 C43.3217978,14.3052439 43.1023798,13.5810392 42.834116,13.0339563 C42.5911558,12.5384502 42.5370701,12.4096424 42.0214423,11.8747312 C41.0920881,10.9106247 39.7162695,10.4285714 37.8940164,10.4285714 Z M24.3333333,16.2387755 L21.4969325,16.2387755 L21.4969325,30.8387755 L24.3333333,30.8387755 L24.3333333,16.2387755 Z M29.8568507,19.0693878 L26.7218814,19.0693878 L26.7218814,22.1979592 L29.8568507,22.1979592 L29.8568507,19.0693878 Z M50.9732577,16.8427537 C52.6388072,16.8427537 53.4634982,18.2552441 53.4473456,21.0802398 L53.4465992,21.1662755 L47.9123483,21.1662755 C48.0384785,19.9368512 48.1940178,19.1059324 48.3789362,18.6735043 C48.9126423,17.4255767 49.8662552,16.8427537 50.9732577,16.8427537 Z M35.0817996,13.2115102 L38.3183867,13.2116443 C38.9319599,13.2116443 40.7232217,13.8724731 40.7232217,16.4705431 C40.7232217,18.1819759 39.8745258,19.1893908 38.1771339,19.4928027 L38.1154049,19.5034547 L35.0817996,19.5033653 L35.0817996,13.2115102 L38.3183867,13.2116443 L35.0817996,13.2115102 Z M24.3333333,10.4285714 L21.4969325,10.4285714 L21.4969325,13.4081633 L24.3333333,13.4081633 L24.3333333,10.4285714 Z M61.0571104,50.0179612 L61.0573194,50.0043594 C62.7307959,50.0358388 64.3575613,50.6497688 65.479746,52.432101 C66.2483658,53.6528547 66.6565239,55.2358522 66.7042053,57.1810639 C66.6449544,58.2060643 66.5753431,58.9034825 66.4953716,59.2733243 C66.221629,60.5392486 65.8306834,61.1538252 65.7165407,61.3657233 C65.4751928,61.8137631 64.1072117,63.9525781 61.1714323,64.0375263 L61.0819961,64.0394675 L61.0573791,64.0395822 L61.0572896,64.0398295 C61.0351806,64.040129 61.0129671,64.040129 60.990664,64.040129 C57.9301427,64.040129 56.6442231,61.8228612 56.3979638,61.3657233 C56.2838211,61.1538252 55.8928755,60.5392486 55.6191329,59.2733243 C55.5391613,58.9034825 55.4695501,58.2060643 55.4102992,57.1810639 C55.4579806,55.2358522 55.8661387,53.6528547 56.6347585,52.432101 C57.7569581,50.6497688 59.3837086,50.0358388 61.0571851,50.0043594 L61.0571104,50.0179612 Z" id="path-1"></path>
    </defs>
    <g id="8pro_overview" stroke="none" stroke-width="1" fill="none" fill-rule="evenodd">
        <g id="8pro_pc_overview1" transform="translate(-814.000000, -29782.000000)">
            <g id="22_more" transform="translate(0.000000, 29299.000000)">
                <g id="p_speaker_f" transform="translate(680.000000, 120.000000)">
                    <g id="p_hires_ic" transform="translate(134.000000, 363.000000)">
                        <mask id="mask-2" fill="white">
                            <use xlink:href="#path-1"></use>
                        </mask>
                        <g id="Clip-2"></g>
                        <polygon id="Fill-1" fill="#FFFFFF" mask="url(#mask-2)" points="0 0 73 0 73 73 0 73"></polygon>
                    </g>
                </g>
            </g>
        </g>
    </g>
</svg>