<?xml version="1.0" encoding="UTF-8"?>
<svg width="460px" height="69px" viewBox="0 0 460 69" version="1.1" xmlns="http://www.w3.org/2000/svg" xmlns:xlink="http://www.w3.org/1999/xlink">
    <title>产品型号</title>
    <g id="8pro_overview" stroke="none" stroke-width="1" fill="none" fill-rule="evenodd">
        <g id="8pro_pc_overview1" transform="translate(-780.000000, -92.000000)" fill="#FFFFFF">
            <g id="text" transform="translate(779.000000, 92.000000)">
                <g id="产品型号" transform="translate(1.000000, 0.000000)">
                    <path d="M449.339969,16.2477789 L386.510071,16.2477789 C381.029969,16.2477789 376.584867,20.690534 376.584867,26.1706361 L376.584867,57.1596156 C376.584867,62.6397177 381.029969,67.0824728 386.510071,67.0824728 L449.339969,67.0824728 C454.820071,67.0824728 459.262827,62.6397177 459.262827,57.1596156 L459.262827,26.1706361 C459.262827,20.690534 454.820071,16.2477789 449.339969,16.2477789 M449.339969,20.2375748 C452.611602,20.2375748 455.270684,22.8990034 455.270684,26.1706361 L455.270684,57.1596156 C455.270684,60.4312483 452.611602,63.0903299 449.339969,63.0903299 L386.510071,63.0903299 C383.236092,63.0903299 380.574663,60.4312483 380.574663,57.1596156 L380.574663,26.1706361 C380.574663,22.8990034 383.236092,20.2375748 386.510071,20.2375748 L449.339969,20.2375748 M440.9215,45.1784932 C440.9215,41.7590034 438.365684,39.2383912 435.0565,39.2383912 C431.749663,39.2383912 429.193847,41.7590034 429.193847,45.1784932 C429.193847,48.6003299 431.749663,51.1185952 435.0565,51.1185952 C438.365684,51.1185952 440.9215,48.6003299 440.9215,45.1784932 M425.131296,45.1784932 C425.131296,39.5786973 429.56701,35.2931871 435.0565,35.2931871 C440.585888,35.2931871 444.981704,39.5786973 444.981704,45.1784932 C444.981704,50.743085 440.585888,55.0661463 435.0565,55.0661463 C429.56701,55.0661463 425.131296,50.743085 425.131296,45.1784932 M424.04701,35.4410442 L424.04701,39.8415544 C421.378541,39.6537993 418.257112,40.892983 418.257112,45.1033912 L418.257112,54.577983 L414.194561,54.577983 L414.194561,35.7813503 L418.257112,35.7813503 L418.257112,38.937983 C419.383643,36.3821667 421.676602,35.4410442 424.04701,35.4410442 M406.7665,36.9102279 C406.7665,34.2394116 404.924153,32.3219626 402.368337,32.3219626 L396.9915,32.3219626 L396.9915,41.4961463 L402.368337,41.4961463 C404.924153,41.4961463 406.7665,39.5411463 406.7665,36.9102279 M411.091908,36.9102279 C411.091908,41.7590034 407.332112,45.5540034 402.368337,45.5540034 L396.9915,45.5540034 L396.9915,54.577983 L392.668439,54.577983 L392.668439,28.2617585 L402.368337,28.2617585 C407.332112,28.2617585 411.091908,32.0215544 411.091908,36.9102279" id="Fill-1"></path>
                    <path d="M343.940827,43.7635238 C349.993582,43.7635238 353.755724,46.936585 353.755724,52.0411769 C353.755724,57.1481156 349.993582,60.3211769 343.940827,60.3211769 C337.841133,60.3211769 334.050827,57.1481156 334.050827,52.0411769 C334.050827,46.936585 337.841133,43.7635238 343.940827,43.7635238 M343.940827,22.5354626 C348.881133,22.5354626 352.072969,25.4386259 352.072969,29.9330136 C352.072969,34.171585 349.033684,36.6992381 343.940827,36.6992381 C338.847969,36.6992381 335.808684,34.171585 335.808684,29.9330136 C335.808684,25.4386259 339.002867,22.5354626 343.940827,22.5354626 M343.940827,67.6976054 C354.818888,67.6976054 361.573378,62.0062789 361.573378,52.8461769 C361.573378,47.3660748 359.198276,43.1533197 354.703888,40.6655646 L354.26501,40.4238299 L354.687459,40.1492381 C358.139806,37.9219932 359.890622,34.3616871 359.890622,29.5692381 C359.890622,19.6111769 351.88052,15.1566871 343.940827,15.1566871 C336.001133,15.1566871 327.991031,19.6111769 327.991031,29.5692381 C327.991031,34.3710748 329.699602,37.931381 333.069806,40.151585 L333.48052,40.4238299 L333.051031,40.6632177 C328.591847,43.1720952 326.233173,47.3848503 326.233173,52.8461769 C326.233173,61.8678095 333.184806,67.6976054 343.940827,67.6976054" id="Fill-3"></path>
                    <path d="M97.1972959,41.2654422 C97.1972959,30.9389116 104.604235,23.1517687 114.42852,23.1517687 C124.616582,23.1517687 131.462602,30.4319728 131.462602,41.2654422 C131.462602,52.042585 124.616582,59.2828912 114.42852,59.2828912 C104.604235,59.2828912 97.1972959,51.5356463 97.1972959,41.2654422 L97.1972959,41.2654422 Z M114.820459,67.339932 C120.706582,67.339932 126.304031,65.382585 130.479235,61.9185034 L130.479235,66.5560544 L138.440051,66.5560544 L138.440051,15.8786054 L130.479235,15.8786054 L130.479235,20.5396259 C126.231276,17.0591156 120.626786,15.092381 114.820459,15.092381 C107.615357,15.092381 101.055663,17.772585 96.3453571,22.6401361 C91.6984184,27.4419728 89.1379082,34.0579932 89.1379082,41.2654422 C89.1379082,48.4681973 91.6984184,55.0654422 96.3477041,59.8461565 C101.050969,64.6785034 107.610663,67.339932 114.820459,67.339932 L114.820459,67.339932 Z M148.895663,66.457483 L156.955051,66.457483 L156.955051,0.813605442 L148.895663,0.813605442 L148.895663,66.457483 Z M254.529031,35.714932 C256.465255,27.8620748 263.250255,22.4641156 271.361276,22.4641156 C279.394847,22.4641156 285.562602,27.7470748 286.9825,35.714932 L254.529031,35.714932 Z M271.361276,67.1451361 C281.230153,67.1451361 288.916378,62.892483 293.59148,54.8448299 L293.995153,54.152483 L287.088112,49.7120748 L286.646888,50.4654422 C283.002092,56.682483 278.146276,59.5762585 271.361276,59.5762585 C261.914847,59.5762585 254.653418,52.504932 254.158214,42.9880952 L295.17801,42.9880952 L295.17801,40.3782993 C295.128724,32.7108503 292.725459,26.2262585 288.226378,21.6168707 C283.9925,17.2844218 278.07352,14.897585 271.558418,14.897585 C256.789133,14.897585 246.07301,25.9047279 246.07301,41.0706463 C246.07301,56.4219728 256.472296,67.1451361 271.361276,67.1451361 L271.361276,67.1451361 Z M8.05821429,23.3489116 L31.1356633,23.3489116 L31.1356633,15.780034 L-0.00117346939,15.780034 L-0.00117346939,66.5560544 L8.05821429,66.5560544 L8.05821429,23.3489116 Z M42.6638265,35.714932 C44.5977041,27.8620748 51.3827041,22.4641156 59.4960714,22.4641156 C67.5272959,22.4641156 73.697398,27.7470748 75.114949,35.714932 L42.6638265,35.714932 Z M83.3104592,40.3782993 C83.2635204,32.7108503 80.8602551,26.2262585 76.3588265,21.6168707 C72.124949,17.2844218 66.2059694,14.897585 59.6908673,14.897585 C44.9239286,14.897585 34.2054592,25.9047279 34.2054592,41.0706463 C34.2054592,56.4219728 44.6047449,67.1451361 59.4960714,67.1451361 C69.362602,67.1451361 77.0511735,62.892483 81.7262755,54.8448299 L82.127602,54.152483 L75.2205612,49.7120748 L74.7793367,50.4654422 C71.1345408,56.682483 66.2787245,59.5762585 59.4960714,59.5762585 C50.0472959,59.5762585 42.7858673,52.504932 42.2906633,42.9880952 L83.3104592,42.9880952 L83.3104592,40.3782993 Z M175.470051,33.9993197 C175.470051,27.2166667 181.736378,22.6612585 187.594337,22.6612585 C194.707908,22.6612585 199.129541,27.6837075 199.129541,35.7665646 L199.129541,66.457483 L207.186582,66.457483 L207.186582,34.7855442 C207.186582,28.9228912 210.425357,22.6612585 219.50801,22.6612585 C226.574643,22.6612585 231.141786,27.8057483 231.141786,35.7665646 L231.141786,66.457483 L239.198827,66.457483 L239.198827,35.7665646 C239.198827,23.0156463 232.031276,15.092381 220.489031,15.092381 C213.694643,15.092381 207.815561,18.0166667 204.147296,23.1635034 C201.73699,19.2347279 197.256684,15.092381 189.065867,15.092381 C183.531786,15.092381 178.790969,17.0614626 175.470051,20.6898299 L175.470051,15.780034 L167.410663,15.780034 L167.410663,66.457483 L175.470051,66.457483 L175.470051,33.9993197 Z" id="Fill-5"></path>
                </g>
            </g>
        </g>
    </g>
</svg>