<?xml version="1.0" encoding="UTF-8"?>
<svg width="311px" height="40px" viewBox="0 0 311 40" version="1.1" xmlns="http://www.w3.org/2000/svg" xmlns:xlink="http://www.w3.org/1999/xlink">
    <title>编组 2</title>
    <defs>
        <polygon id="path-1" points="0 40 174.676009 40 174.676009 0 0 0"></polygon>
        <linearGradient x1="176.146007%" y1="30.4673169%" x2="-103.736392%" y2="84.9725744%" id="linearGradient-3">
            <stop stop-color="#1ACAE1" offset="0%"></stop>
            <stop stop-color="#FFDD26" offset="9.14064098%"></stop>
            <stop stop-color="#E037FF" offset="29.8065974%"></stop>
            <stop stop-color="#43D0FF" offset="66.673381%"></stop>
            <stop stop-color="#21EF78" offset="77.2361962%"></stop>
            <stop stop-color="#FFF00D" offset="100%"></stop>
        </linearGradient>
    </defs>
    <g id="8pro_overview" stroke="none" stroke-width="1" fill="none" fill-rule="evenodd">
        <g id="8pro_h5_overview" transform="translate(-24.000000, -18021.000000)">
            <g id="23_ui" transform="translate(0.000000, 17951.000000)">
                <g id="编组-2" transform="translate(24.000000, 70.000000)">
                    <g id="编组">
                        <path d="M103.703402,20.3328445 C103.703402,16.3142625 107.442144,13.6147776 110.933827,13.6147776 C115.177032,13.6147776 117.813132,16.5904731 117.813132,21.3804394 L117.813132,39.5652174 L122.619087,39.5652174 L122.619087,20.7983284 C122.619087,17.3255481 124.549381,13.6147776 129.966617,13.6147776 C134.181139,13.6147776 136.904238,16.6630915 136.904238,21.3804394 L136.904238,39.5652174 L141.710194,39.5652174 L141.710194,21.3804394 C141.710194,13.8242411 137.434625,9.13043478 130.552253,9.13043478 C126.499493,9.13043478 122.993622,10.8623936 120.80562,13.9126185 C119.369754,11.5847009 116.696831,9.13043478 111.812266,9.13043478 C108.511587,9.13043478 105.684456,10.297454 103.703402,12.4472044 L103.703402,9.53800663 L98.8974463,9.53800663 L98.8974463,39.5652174 L103.703402,39.5652174 L103.703402,20.3328445 Z" id="Fill-1" fill="#FFFFFF"></path>
                        <path d="M25.5637,20.9952933 C26.7111199,16.3561401 30.7339341,13.166843 35.5429218,13.166843 C40.3048001,13.166843 43.9627932,16.2887287 44.803586,20.9952933 L25.5637,20.9952933 Z M49.6627869,23.7500201 C49.6342164,19.2216359 48.2087399,15.3891826 45.540738,12.6667945 C43.0310238,10.1060171 39.5216471,8.69565217 35.6590882,8.69565217 C26.9043517,8.69565217 20.5501187,15.1990996 20.5501187,24.1594319 C20.5501187,33.2300085 26.7152766,39.5652174 35.5429218,39.5652174 C41.3929175,39.5652174 45.9504793,37.0525199 48.7221498,32.2984276 L48.9608284,31.8892644 L44.8656873,29.2657979 L44.6039805,29.7108623 C42.4438738,33.3833343 39.5646276,35.0937504 35.5429218,35.0937504 C29.9418857,35.0937504 25.6374401,30.9148505 25.3433109,25.2924462 L49.6627869,25.2924462 L49.6627869,23.7500201 Z" id="Fill-3" fill="#FFFFFF"></path>
                        <polygon id="Fill-5" fill="#FFFFFF" points="4.76494155 14.036831 18.4094813 14.036831 18.4094813 9.56521739 0 9.56521739 0 39.5652174 4.76494155 39.5652174"></polygon>
                        <path d="M150.57727,20.9952933 C151.7247,16.3561401 155.747548,13.166843 160.556328,13.166843 C165.318219,13.166843 168.975966,16.2887287 169.816766,20.9952933 L150.57727,20.9952933 Z M160.556328,39.5652174 C166.406346,39.5652174 170.963947,37.0525199 173.735641,32.2984276 L173.974349,31.8892644 L169.879145,29.2657979 L169.617464,29.7108623 C167.457311,33.3833343 164.578013,35.0937504 160.556328,35.0937504 C154.955216,35.0937504 150.650734,30.9148505 150.356602,25.2924462 L174.676009,25.2924462 L174.676009,23.7500201 C174.647466,19.2216359 173.22195,15.3891826 170.554202,12.6667945 C168.044466,10.1060171 164.535087,8.69565217 160.672772,8.69565217 C151.917656,8.69565217 145.563341,15.1990996 145.563341,24.1594319 C145.563341,33.2300085 151.728607,39.5652174 160.556328,39.5652174 L160.556328,39.5652174 Z" id="Fill-7" fill="#FFFFFF"></path>
                        <mask id="mask-2" fill="white">
                            <use xlink:href="#path-1"></use>
                        </mask>
                        <g id="Clip-10"></g>
                        <polygon id="Fill-9" fill="#FFFFFF" mask="url(#mask-2)" points="87.766132 39.5652174 92.9036616 39.5652174 92.9036616 0 87.766132 0"></polygon>
                        <path d="M57.4183241,24.5940767 C57.4183241,18.4928339 61.7923482,13.8917499 67.5927678,13.8917499 C73.6091658,13.8917499 77.6515631,18.1928076 77.6515631,24.5940767 C77.6515631,30.9608527 73.6091658,35.2386572 67.5927678,35.2386572 C61.7923482,35.2386572 57.4183241,30.6624558 57.4183241,24.5940767 M67.8247272,40 C71.2997017,40 74.6062268,38.8435291 77.0717198,36.7957615 L77.0717198,39.5358485 L81.7723473,39.5358485 L81.7723473,9.59458624 L77.0717198,9.59458624 L77.0717198,12.3484816 C74.5623135,10.2921804 71.2541323,9.13043478 67.8247272,9.13043478 C63.570547,9.13043478 59.6962955,10.7140509 56.9157639,13.5892382 C54.1711689,16.4274193 52.6596792,20.3356038 52.6596792,24.5940767 C52.6596792,28.8492632 54.1714173,32.747782 56.9168955,35.5712986 C59.693563,38.4271543 63.5672349,40 67.8247272,40" id="Fill-11" fill="#FFFFFF" mask="url(#mask-2)"></path>
                    </g>
                    <path d="M208.199821,40 C214.873257,40 219.758387,35.7998734 219.758387,29.0528615 L219.758387,8.14159292 L214.935177,8.14159292 L214.935177,28.9636091 C214.935177,32.6275494 212.692396,35.2191168 208.199821,35.2191168 C203.707247,35.2191168 201.429785,32.6275494 201.429785,28.9636091 L201.429785,8.14159292 L196.641256,8.14159292 L196.641256,29.0528615 C196.641256,35.7998734 201.482768,40 208.199821,40 Z M230.460762,39.5635835 L230.460762,8.14159292 L225.323622,8.14159292 L225.323622,39.5635835 L230.460762,39.5635835 Z" id="UI" fill="#FFFFFF" fill-rule="nonzero"></path>
                    <path d="M272.360763,38.7152295 L272.360763,34.0553053 L259.402553,34.0553053 L266.57802,26.779785 C269.5132,23.7626466 271.791251,20.5236598 271.791251,16.6634974 C271.791251,10.4961116 267.016107,7.07964602 261.978111,7.07964602 C257.903906,7.07964602 254.048744,9.12065141 252.077354,13.3801409 L256.213808,15.8564772 C257.396641,13.3717749 259.437209,11.8964972 261.978111,11.8964972 C264.606631,11.8964972 266.988012,13.7327638 266.988012,16.8386416 C266.988012,19.1902348 265.123986,21.530586 262.933553,23.7490702 L252.164972,34.7219581 L252.164972,38.7152295 L272.360763,38.7152295 Z M279.310019,39.2476657 C280.95356,39.2476657 282.316496,37.8672756 282.316496,36.2026875 C282.316496,34.4974997 280.95356,33.1577093 279.310019,33.1577093 C277.626392,33.1577093 276.303542,34.4974997 276.303542,36.2026875 C276.303542,37.8672756 277.626392,39.2476657 279.310019,39.2476657 Z M298.952619,39.2920354 C306.662943,39.2920354 311,32.7696921 311,23.1858407 C311,13.6019893 306.662943,7.07964602 298.952619,7.07964602 C291.242295,7.07964602 286.905238,13.6019893 286.905238,23.1858407 C286.905238,32.7696921 291.242295,39.2920354 298.952619,39.2920354 Z M298.952619,34.4844112 C294.225326,34.4844112 291.796328,30.3293596 291.796328,23.1858407 C291.796328,16.0423219 294.148282,11.8964972 298.952619,11.8964972 C303.756956,11.8964972 306.138298,16.0423219 306.138298,23.1858407 C306.138298,30.3293596 303.679911,34.4844112 298.952619,34.4844112 Z" id="2.0" fill="url(#linearGradient-3)" fill-rule="nonzero"></path>
                </g>
            </g>
        </g>
    </g>
</svg>