<?xml version="1.0" encoding="UTF-8"?>
<svg width="425px" height="54px" viewBox="0 0 425 54" version="1.1" xmlns="http://www.w3.org/2000/svg" xmlns:xlink="http://www.w3.org/1999/xlink">
    <title>编组 2</title>
    <defs>
        <polygon id="path-1" points="0 54 238.705157 54 238.705157 0 0 0"></polygon>
        <linearGradient x1="176.146007%" y1="30.9378291%" x2="-103.736392%" y2="84.130139%" id="linearGradient-3">
            <stop stop-color="#1ACAE1" offset="0%"></stop>
            <stop stop-color="#FFDD26" offset="9.14064098%"></stop>
            <stop stop-color="#E037FF" offset="29.8065974%"></stop>
            <stop stop-color="#43D0FF" offset="66.673381%"></stop>
            <stop stop-color="#21EF78" offset="77.2361962%"></stop>
            <stop stop-color="#FFF00D" offset="100%"></stop>
        </linearGradient>
    </defs>
    <g id="8pro_overview" stroke="none" stroke-width="1" fill="none" fill-rule="evenodd">
        <g id="8pro_pc_overview1" transform="translate(-1068.000000, -30880.000000)">
            <g id="23_ui" transform="translate(0.000000, 30780.000000)">
                <g id="编组-2" transform="translate(1068.000000, 100.000000)">
                    <g id="编组">
                        <path d="M141.716867,27.4493401 C141.716867,22.0242544 146.826081,18.3799497 151.597673,18.3799497 C157.396265,18.3799497 160.998653,22.3971386 160.998653,28.8635931 L160.998653,53.4130435 L167.566277,53.4130435 L167.566277,28.0777433 C167.566277,23.38949 170.204137,18.3799497 177.607114,18.3799497 C183.366508,18.3799497 187.087785,22.4951736 187.087785,28.8635931 L187.087785,53.4130435 L193.655409,53.4130435 L193.655409,28.8635931 C193.655409,18.6627255 187.81259,12.326087 178.40742,12.326087 C172.869082,12.326087 168.078101,14.6642313 165.088066,18.782035 C163.12587,15.6393462 159.473161,12.326087 152.798113,12.326087 C148.287538,12.326087 144.424096,13.9015629 141.716867,16.803726 L141.716867,12.876309 L135.149243,12.876309 L135.149243,53.4130435 L141.716867,53.4130435 L141.716867,27.4493401 Z" id="Fill-1" fill="#FFFFFF"></path>
                        <path d="M34.9343167,28.343646 C36.5023342,22.0807891 41.9997491,17.7752381 48.5715169,17.7752381 C55.0789069,17.7752381 60.0777721,21.9897837 61.2267654,28.343646 L34.9343167,28.343646 Z M67.8671525,32.0625272 C67.8281092,25.9492085 65.8801108,20.7753966 62.2341275,17.1001726 C58.8044537,13.643123 54.0086818,11.7391304 48.7302652,11.7391304 C36.766397,11.7391304 28.0829596,20.5187844 28.0829596,32.6152331 C28.0829596,44.8605115 36.5080146,53.4130435 48.5715169,53.4130435 C56.565884,53.4130435 62.7940634,50.0209019 66.5817159,43.6028772 L66.9078845,43.0505069 L61.3116306,39.5088271 L60.9539926,40.1096641 C58.0020784,45.0675013 54.0674171,47.376563 48.5715169,47.376563 C40.9173679,47.376563 35.035087,41.7350482 34.6331419,34.1448024 L67.8671525,34.1448024 L67.8671525,32.0625272 Z" id="Fill-3" fill="#FFFFFF"></path>
                        <polygon id="Fill-5" fill="#FFFFFF" points="6.51157607 18.9497219 25.1576513 18.9497219 25.1576513 12.9130435 0 12.9130435 0 53.4130435 6.51157607 53.4130435"></polygon>
                        <path d="M205.772796,28.343646 C207.340827,22.0807891 212.838289,17.7752381 219.409773,17.7752381 C225.917181,17.7752381 230.91571,21.9897837 232.064713,28.343646 L205.772796,28.343646 Z M219.409773,53.4130435 C227.40417,53.4130435 233.632403,50.0209019 237.420088,43.6028772 L237.746297,43.0505069 L232.149958,39.5088271 L231.792354,40.1096641 C228.840377,45.0675013 224.905644,47.376563 219.409773,47.376563 C211.75552,47.376563 205.873189,41.7350482 205.47124,34.1448024 L238.705157,34.1448024 L238.705157,32.0625272 C238.666151,25.9492085 236.718098,20.7753966 233.072462,17.1001726 C229.642759,13.643123 224.846984,11.7391304 219.568901,11.7391304 C207.604514,11.7391304 198.920964,20.5187844 198.920964,32.6152331 C198.920964,44.8605115 207.346167,53.4130435 219.409773,53.4130435 L219.409773,53.4130435 Z" id="Fill-7" fill="#FFFFFF"></path>
                        <mask id="mask-2" fill="white">
                            <use xlink:href="#path-1"></use>
                        </mask>
                        <g id="Clip-10"></g>
                        <polygon id="Fill-9" fill="#FFFFFF" mask="url(#mask-2)" points="119.93764 53.4130435 126.95838 53.4130435 126.95838 0 119.93764 0"></polygon>
                        <path d="M78.4655555,33.2020035 C78.4655555,24.9653257 84.4429195,18.7538624 92.369538,18.7538624 C100.591304,18.7538624 106.11548,24.5602902 106.11548,33.2020035 C106.11548,41.7971512 100.591304,47.5721872 92.369538,47.5721872 C84.4429195,47.5721872 78.4655555,41.3943154 78.4655555,33.2020035 M92.6865243,54 C97.4352836,54 101.953847,52.4387643 105.32309,49.674278 L105.32309,53.3733955 L111.746777,53.3733955 L111.746777,12.9526914 L105.32309,12.9526914 L105.32309,16.6704501 C101.893837,13.8944436 97.3730104,12.326087 92.6865243,12.326087 C86.872934,12.326087 81.5785388,14.4639688 77.778777,18.3454716 C74.0281247,22.177016 71.9625841,27.4530651 71.9625841,33.2020035 C71.9625841,38.9465054 74.0284641,44.2095056 77.7803235,48.0212532 C81.5748047,51.8766583 86.8684078,54 92.6865243,54" id="Fill-11" fill="#FFFFFF" mask="url(#mask-2)"></path>
                    </g>
                    <path d="M284.517441,54 C293.637088,54 300.312908,48.3298291 300.312908,39.2213631 L300.312908,10.9911504 L293.721705,10.9911504 L293.721705,39.1008723 C293.721705,44.0471916 290.656811,47.5458077 284.517441,47.5458077 C278.37807,47.5458077 275.265784,44.0471916 275.265784,39.1008723 L275.265784,10.9911504 L268.721973,10.9911504 L268.721973,39.2213631 C268.721973,48.3298291 275.338188,54 284.517441,54 Z M314.938341,53.4108377 L314.938341,10.9911504 L307.918133,10.9911504 L307.918133,53.4108377 L314.938341,53.4108377 Z" id="UI" fill="#FFFFFF" fill-rule="nonzero"></path>
                    <path d="M372.197184,52.2655599 L372.197184,45.9746621 L354.48902,45.9746621 L364.294722,36.1527097 C368.30582,32.0795729 371.418912,27.7069407 371.418912,22.4957215 C371.418912,14.1697506 364.893394,9.55752212 358.008673,9.55752212 C352.441029,9.55752212 347.172721,12.3128794 344.4787,18.0631902 L350.131409,21.4062442 C351.747822,18.0518962 354.536379,16.0602712 358.008673,16.0602712 C361.600701,16.0602712 364.855,18.5392312 364.855,22.7321662 C364.855,25.9068169 362.307697,29.0662912 359.31434,32.0612447 L344.598434,46.8746435 L344.598434,52.2655599 L372.197184,52.2655599 Z M381.693756,52.9843487 C383.939752,52.9843487 385.802285,51.1208221 385.802285,48.8736281 C385.802285,46.5716246 383.939752,44.7629076 381.693756,44.7629076 C379.39298,44.7629076 377.585227,46.5716246 377.585227,48.8736281 C377.585227,51.1208221 379.39298,52.9843487 381.693756,52.9843487 Z M408.536537,53.0442478 C419.073153,53.0442478 425,44.2390843 425,31.300885 C425,18.3626856 419.073153,9.55752212 408.536537,9.55752212 C397.999921,9.55752212 392.073074,18.3626856 392.073074,31.300885 C392.073074,44.2390843 397.999921,53.0442478 408.536537,53.0442478 Z M408.536537,46.5539552 C402.076411,46.5539552 398.75704,40.9446354 398.75704,31.300885 C398.75704,21.6571345 401.971125,16.0602712 408.536537,16.0602712 C415.10195,16.0602712 418.356195,21.6571345 418.356195,31.300885 C418.356195,40.9446354 414.996664,46.5539552 408.536537,46.5539552 Z" id="2.0" fill="url(#linearGradient-3)" fill-rule="nonzero"></path>
                </g>
            </g>
        </g>
    </g>
</svg>